<svg width="86" height="158" viewBox="0 0 86 158" fill="none" xmlns="http://www.w3.org/2000/svg">
<path d="M23.5238 9.37223C11.8197 17.6085 10.6095 26.722 10.6095 40.223C10.6095 57.278 14.4931 58.3613 32.3725 59.5148C55.6174 61.0144 59.3969 45.087 59.3969 25.2361C59.3969 16.6459 52.4349 13.1967 45.3665 8.57505C42.247 6.53535 37.026 5.21272 33.2494 5.06746C27.4365 4.84389 22.1691 0.543335 16.0303 2.51649C6.29188 5.64671 7.21719 12.7742 5.18871 21.6488C1.68426 36.9808 12.9275 47.9399 25.4371 54.4925C36.4233 60.2472 43.3878 81.9234 47.2 92.5977C57.8779 122.496 24.2277 144.62 2 155.734" stroke="black" stroke-width="3" stroke-linecap="round"/>
<path d="M43.6128 122.731C51.0099 121.386 57.2168 112.979 64.8177 112.687C70.1928 112.48 70.8637 114.133 75.1811 116.672C79.9055 119.452 82.6336 132.205 76.616 134.21" stroke="black" stroke-width="3" stroke-linecap="round"/>
<path d="M36.4381 76.8136C28.2657 76.4992 20.3109 75.3786 12.0444 75.3786C6.4806 75.3786 5.63428 75.7488 6.62361 82.2344C7.23314 86.2302 8.42441 90.7877 12.0444 92.5977" stroke="black" stroke-width="3" stroke-linecap="round"/>
<path d="M40.7429 79.6834C47.5241 83.2096 52.6124 89.2635 59.3969 92.2788C63.7 94.1913 74.0633 87.7112 76.2971 83.9882C80.8847 76.3422 83.7906 67.0579 83.7906 58.1596" stroke="black" stroke-width="3" stroke-linecap="round"/>
</svg>
